{"title":"Atlantis (2013) S01E11 Hunger Pangs 480p x264 AAC E-Subs [GWC].m","uid":9348967,"size":152467104,"categoryP":"video","categoryS":"tv_shows","magnet":"?xt=urn:btih:4da8a8d3283079662f34c68ded461e4b243bc95d&amp;dn=Atlantis+%282013%29+S01E11+Hunger+Pangs+480p+x264+AAC+E-Subs+%5BGWC%5D.m&amp;tr=udp%3A%2F%2Ftracker.openbittorrent.com%3A80&amp;tr=udp%3A%2F%2Fopen.demonii.com%3A1337&amp;tr=udp%3A%2F%2Ftracker.coppersurfer.tk%3A6969&amp;tr=udp%3A%2F%2Fexodus.desync.com%3A6969","seeders":0,"leechers":0,"uploader":"canc232","files":1,"time":1387087474,"description":"Atlantis (2013) S01E11 Hunger Pangs 480p x264 AAC E-Subs [GWC]\n\n\n\nSCREENS :\n &lt;a href=&quot;\nhttp://s20.postimg.org/3mafenat9/Hunger_Pangs_10_22_07.jpg&quot; rel=&quot;nofollow&quot; target=&quot;_NEW&quot;&gt;\nhttp://s20.postimg.org/3mafenat9/Hunger_Pangs_10_22_07.jpg&lt;/a&gt;\n &lt;a href=&quot;\nhttp://s20.postimg.org/ko39gqpod/Hunger_Pangs_10_22_18.jpg&quot; rel=&quot;nofollow&quot; target=&quot;_NEW&quot;&gt;\nhttp://s20.postimg.org/ko39gqpod/Hunger_Pangs_10_22_18.jpg&lt;/a&gt;\n &lt;a href=&quot;\nhttp://s20.postimg.org/lrndspabh/Hunger_Pangs_10_22_39.jpg&quot; rel=&quot;nofollow&quot; target=&quot;_NEW&quot;&gt;\nhttp://s20.postimg.org/lrndspabh/Hunger_Pangs_10_22_39.jpg&lt;/a&gt;\n\n\n\nMEDIA INFO :\n\nGeneral \nFormat : MPEG-4 \nFormat profile : Base Media\nFile size : 145 MiB \nDuration : 42mn 51s \nOverall bit rate mode : Variable \nOverall bit rate : 474 Kbps\n\nVideo \nFormat : AVC \nFormat profile : &lt;a class=&quot;__cf_email__&quot; href=&quot;/cdn-cgi/l/email-protection&quot; data-cfemail=&quot;3e765759567e720d100e&quot;&gt;[email&amp;#160;protected]&lt;/a&gt;&lt;script data-cfhash='f9e31' type=&quot;text/javascript&quot;&gt;\n/* &lt;![CDATA[ */!function(){try{var t=&quot;currentScript&quot;in document?document.currentScript:function(){for(var t=document.getElementsByTagName(&quot;script&quot;),e=t.length;e--;)if(t[e].getAttribute(&quot;data-cfhash&quot;))return t[e]}();if(t&amp;&amp;t.previousSibling){var e,r,n,i,c=t.previousSibling,a=c.getAttribute(&quot;data-cfemail&quot;);if(a){for(e=&quot;&quot;,r=parseInt(a.substr(0,2),16),n=2;a.length-n;n+=2)i=parseInt(a.substr(n,2),16)^r,e+=String.fromCharCode(i);e=document.createTextNode(e),c.parentNode.replaceChild(e,c)}t.parentNode.removeChild(t);}}catch(u){}}()/* ]]&gt; */&lt;/script&gt; \nFormat settings, CABAC : Yes \nFormat settings, ReFrames : 4 frames \nDuration : 42mn 51s \nBit rate : 411 Kbps \nWidth : 720 pixels \nHeight : 404 pixels \nDisplay aspect ratio : 16:9  \nFrame rate : 25.000 fps \nStream size : 126 MiB (87%) \nTitle : Atlantis (2013) S01E11 Hunger Pangs 480p x264 AAC E-Subs [GWC] \nWriting library : x264 core\n\nAudio \nFormat : AAC \nFormat profile : HE-AAC / LC\nDuration : 42mn 51s \nBit rate mode : Variable \nChannel(s) : 2 channels \nSampling rate : 48.0 KHz / 24.0 KHz\nStream size : 18.4 MiB\nLanguage : English \n\nText \nFormat : Timed Text \nDuration : 42mn 33s \nStream size : 13.7 KiB (0%) \nTitle : English Subtitle by Stubbie \nLanguage : English","torrent":{"xt":"urn:btih:4da8a8d3283079662f34c68ded461e4b243bc95d","amp;dn":"Atlantis+%282013%29+S01E11+Hunger+Pangs+480p+x264+AAC+E-Subs+%5BGWC%5D.m","amp;tr":["udp%3A%2F%2Ftracker.openbittorrent.com%3A80","udp%3A%2F%2Fopen.demonii.com%3A1337","udp%3A%2F%2Ftracker.coppersurfer.tk%3A6969","udp%3A%2F%2Fexodus.desync.com%3A6969"],"infoHash":"4da8a8d3283079662f34c68ded461e4b243bc95d","infoHashBuffer":{"type":"Buffer","data":[77,168,168,211,40,48,121,102,47,52,198,141,237,70,30,75,36,59,201,93]},"announce":[],"urlList":[]}}